<?xml version="1.0" standalone="no"?><!DOCTYPE svg PUBLIC "-//W3C//DTD SVG 1.1//EN" "http://www.w3.org/Graphics/SVG/1.1/DTD/svg11.dtd"><svg t="1602730910896" class="icon" viewBox="0 0 1024 1024" version="1.1" xmlns="http://www.w3.org/2000/svg" p-id="2480" width="16" height="16" xmlns:xlink="http://www.w3.org/1999/xlink"><defs><style type="text/css"></style></defs><path d="M512 1015.345c-277.909 0-503.198-225.29-503.198-503.198s225.287-503.196 503.198-503.196c277.907 0 503.198 225.29 503.198 503.198s-225.29 503.196-503.198 503.196zM512 71.851c-243.163 0-440.295 197.134-440.295 440.297s197.134 440.295 440.295 440.295 440.295-197.134 440.295-440.295-197.134-440.297-440.295-440.297zM713.042 337.108c8.681-15.049 3.543-34.274-11.506-42.957s-34.274-3.543-42.957 11.506l-201.147 348.361-112.531-103.77c-11.856-12.674-31.756-13.329-44.45-1.453-12.676 11.876-13.308 31.778-1.432 44.452l143.776 132.617c11.876 12.674 31.778 13.308 44.452 1.432 3.825-3.582 225.793-390.19 225.793-390.19z" p-id="2481" fill="#666666"></path></svg>